<svg width="226" height="63" viewBox="0 0 226 63" fill="none" xmlns="http://www.w3.org/2000/svg">
<path opacity="0.8" d="M73.3905 29.1094H73.9061C75.1249 29.1094 75.4843 28.4531 75.8124 27.7031L78.578 21H77.5468L75.5312 25.9687L73.328 21H72.2812L75.0468 27.125L74.9218 27.4219C74.7499 27.8125 74.4687 28.2031 73.8905 28.2031H73.3905V29.1094ZM83.5487 23H82.6269V26.043C82.1815 26.1719 81.7245 26.25 81.1737 26.25C80.4237 26.25 79.8456 25.8281 79.8456 24.9062V22.9844H78.9237V24.9062C78.9237 26.375 79.8144 27.1094 81.1737 27.1094C81.7401 27.1094 82.1933 27.0352 82.6269 26.9062V29H83.5487V23ZM87.7558 29.125C88.9745 29.125 89.8651 28.5156 90.1464 27.6094L89.2558 27.3594C89.0214 27.9844 88.4784 28.2969 87.7558 28.2969C86.6737 28.2969 85.9277 27.5977 85.8848 26.3125H90.2401V25.9219C90.2401 23.6875 88.912 22.9219 87.662 22.9219C86.037 22.9219 84.9589 24.2031 84.9589 26.0469C84.9589 27.8906 86.0214 29.125 87.7558 29.125ZM85.8848 25.5156C85.9473 24.582 86.6073 23.75 87.662 23.75C88.662 23.75 89.3026 24.5 89.3026 25.5156H85.8848ZM96.0956 20.75C95.8027 20.9961 95.3651 20.9961 94.7519 20.9922C94.5526 20.9922 94.334 20.9922 94.0956 21C92.2675 21.0469 91.3612 22.4375 91.3612 25.1094V25.75C91.3612 27.9688 92.4394 29.125 94.0487 29.125C95.6542 29.125 96.7206 27.9609 96.7206 26.0781C96.7206 24.1875 95.6386 23.1875 94.2362 23.1875C93.412 23.1875 92.6425 23.5312 92.2362 24.2812H92.1581C92.2831 22.7344 92.8612 21.9062 94.1112 21.8594C95.2206 21.8125 96.0175 21.8437 96.5644 21.3125L96.0956 20.75ZM94.0487 28.2969C92.955 28.2969 92.2831 27.4219 92.2831 26.0781C92.3027 24.7656 92.9629 24.0156 94.0331 24.0156C95.1308 24.0156 95.7987 24.7656 95.7987 26.0781C95.7987 27.4297 95.1347 28.2969 94.0487 28.2969ZM99.0526 23H98.1308V29H99.0526V26.4375H101.928V29H102.85V23H101.928V25.5781H99.0526V23ZM105.455 25.1719V23H104.533V29H107.049C108.455 29 109.221 28.1406 109.221 27.0625C109.221 25.9687 108.455 25.1719 107.049 25.1719H105.455ZM110.174 29H111.096V23H110.174V29ZM105.455 26.0312H107.049C107.779 26.0312 108.299 26.4766 108.299 27.1094C108.299 27.7148 107.779 28.1406 107.049 28.1406H105.455V26.0312ZM113.705 27.6406V23H112.783V29H113.861L116.736 24.3594V29H117.658V23H116.596L113.705 27.6406ZM115.986 21C115.986 21.4062 115.768 21.7656 115.221 21.7656C114.674 21.7656 114.471 21.4062 114.471 21H113.611C113.611 21.8437 114.236 22.4375 115.221 22.4375C116.221 22.4375 116.846 21.8437 116.846 21H115.986ZM127.159 23H126.237V28.1406H123.362V23H122.44V29H127.081V30.9375H128.003V28.1406H127.159V23ZM131.874 29.125C133.093 29.125 133.983 28.5156 134.265 27.6094L133.374 27.3594C133.14 27.9844 132.597 28.2969 131.874 28.2969C130.792 28.2969 130.046 27.5977 130.003 26.3125H134.358V25.9219C134.358 23.6875 133.03 22.9219 131.78 22.9219C130.155 22.9219 129.077 24.2031 129.077 26.0469C129.077 27.8906 130.14 29.125 131.874 29.125ZM130.003 25.5156C130.065 24.582 130.726 23.75 131.78 23.75C132.78 23.75 133.421 24.5 133.421 25.5156H130.003ZM136.683 23H135.761V29H136.683V26.4375H139.558V29H140.479V23H139.558V25.5781H136.683V23ZM141.347 23.8594H143.331V29H144.253V23.8594H146.222V23H141.347V23.8594ZM147.566 31.25H148.488V28.0781H148.566C148.77 28.4062 149.16 29.125 150.316 29.125C151.816 29.125 152.863 27.9219 152.863 26.0156C152.863 24.125 151.816 22.9219 150.301 22.9219C149.129 22.9219 148.77 23.6406 148.566 23.9531H148.457V23H147.566V31.25ZM148.473 26C148.473 24.6562 149.066 23.75 150.191 23.75C151.363 23.75 151.941 24.7344 151.941 26C151.941 27.2812 151.348 28.2969 150.191 28.2969C149.082 28.2969 148.473 27.3594 148.473 26ZM74.828 36.7812C75.7655 36.7891 76.3241 37.6484 76.4452 38.5469H74.2188V39.4062H76.453C76.3554 40.3203 75.7772 41.2422 74.828 41.25C74.1249 41.2422 73.4688 40.6328 73.4688 39.9531H72.5624C72.5624 41.1484 73.5155 42.1094 74.828 42.1094C76.4687 42.1094 77.3905 40.7148 77.3905 39.125V38.9062C77.3905 37.3164 76.4687 35.9219 74.828 35.9219C73.6562 35.9219 72.5624 36.8828 72.5624 37.9219H73.4688C73.4688 37.3008 74.203 36.7891 74.828 36.7812ZM81.2323 42.125C82.5604 42.125 83.4354 41.3125 83.5917 40.25H82.6698C82.4979 40.9062 81.9511 41.2969 81.2323 41.2969C80.1386 41.2969 79.4354 40.3906 79.4354 39C79.4354 37.6406 80.1542 36.75 81.2323 36.75C82.0448 36.75 82.5292 37.25 82.6698 37.7969H83.5917C83.4354 36.6719 82.4823 35.9219 81.2167 35.9219C79.5917 35.9219 78.5136 37.2031 78.5136 39.0312C78.5136 40.8281 79.5448 42.125 81.2323 42.125ZM84.4667 36.8594H86.4511V42H87.3729V36.8594H89.3417V36H84.4667V36.8594ZM92.8905 42.125C94.1093 42.125 95 41.5156 95.2812 40.6094L94.3905 40.3594C94.1562 40.9844 93.6132 41.2969 92.8905 41.2969C91.8085 41.2969 91.0624 40.5977 91.0194 39.3125H95.3749V38.9219C95.3749 36.6875 94.0468 35.9219 92.7968 35.9219C91.1718 35.9219 90.0938 37.2031 90.0938 39.0469C90.0938 40.8906 91.1562 42.125 92.8905 42.125ZM91.0194 38.5156C91.0819 37.582 91.7421 36.75 92.7968 36.75C93.7968 36.75 94.4374 37.5 94.4374 38.5156H91.0194ZM96.2188 36.8594H98.203V42H99.1249V36.8594H101.094V36H96.2188V36.8594ZM103.36 40.6406V36H102.438V42H103.517L106.392 37.3594V42H107.313V36H106.251L103.36 40.6406ZM113.627 36H112.705V39.043C112.26 39.1719 111.803 39.25 111.252 39.25C110.502 39.25 109.924 38.8281 109.924 37.9062V35.9844H109.002V37.9062C109.002 39.375 109.893 40.1094 111.252 40.1094C111.818 40.1094 112.271 40.0352 112.705 39.9062V42H113.627V36ZM117.834 42.125C119.053 42.125 119.943 41.5156 120.225 40.6094L119.334 40.3594C119.1 40.9844 118.557 41.2969 117.834 41.2969C116.752 41.2969 116.006 40.5977 115.963 39.3125H120.318V38.9219C120.318 36.6875 118.99 35.9219 117.74 35.9219C116.115 35.9219 115.037 37.2031 115.037 39.0469C115.037 40.8906 116.1 42.125 117.834 42.125ZM115.963 38.5156C116.025 37.582 116.686 36.75 117.74 36.75C118.74 36.75 119.381 37.5 119.381 38.5156H115.963ZM124.158 42.125C125.486 42.125 126.361 41.3125 126.518 40.25H125.596C125.424 40.9062 124.877 41.2969 124.158 41.2969C123.064 41.2969 122.361 40.3906 122.361 39C122.361 37.6406 123.08 36.75 124.158 36.75C124.971 36.75 125.455 37.25 125.596 37.7969H126.518C126.361 36.6719 125.408 35.9219 124.143 35.9219C122.518 35.9219 121.439 37.2031 121.439 39.0312C121.439 40.8281 122.471 42.125 124.158 42.125ZM127.865 42H128.787V39.4687H129.615L131.584 42H132.771L130.318 38.8906L132.74 36H131.553L129.396 38.6094H128.787V36H127.865V42ZM135.964 42.125C137.589 42.125 138.683 40.8906 138.683 39.0312C138.683 37.1562 137.589 35.9219 135.964 35.9219C134.339 35.9219 133.245 37.1562 133.245 39.0312C133.245 40.8906 134.339 42.125 135.964 42.125ZM135.964 41.2969C134.729 41.2969 134.167 40.2344 134.167 39.0312C134.167 37.8281 134.729 36.75 135.964 36.75C137.198 36.75 137.761 37.8281 137.761 39.0312C137.761 40.2344 137.198 41.2969 135.964 41.2969ZM141.012 40.6406V36H140.09V42H141.168L144.043 37.3594V42H144.965V36H143.902L141.012 40.6406ZM143.293 34C143.293 34.4062 143.074 34.7656 142.527 34.7656C141.98 34.7656 141.777 34.4062 141.777 34H140.918C140.918 34.8437 141.543 35.4375 142.527 35.4375C143.527 35.4375 144.152 34.8437 144.152 34H143.293ZM149.747 42H150.669V39.4687H151.497L153.466 42H154.653L152.2 38.8906L154.622 36H153.435L151.278 38.6094H150.669V36H149.747V42ZM157.846 42.125C159.471 42.125 160.564 40.8906 160.564 39.0312C160.564 37.1562 159.471 35.9219 157.846 35.9219C156.221 35.9219 155.127 37.1562 155.127 39.0312C155.127 40.8906 156.221 42.125 157.846 42.125ZM157.846 41.2969C156.611 41.2969 156.049 40.2344 156.049 39.0312C156.049 37.8281 156.611 36.75 157.846 36.75C159.08 36.75 159.643 37.8281 159.643 39.0312C159.643 40.2344 159.08 41.2969 157.846 41.2969ZM164.409 42.125C165.737 42.125 166.612 41.3125 166.769 40.25H165.847C165.675 40.9062 165.128 41.2969 164.409 41.2969C163.315 41.2969 162.612 40.3906 162.612 39C162.612 37.6406 163.331 36.75 164.409 36.75C165.222 36.75 165.706 37.25 165.847 37.7969H166.769C166.612 36.6719 165.659 35.9219 164.394 35.9219C162.769 35.9219 161.69 37.2031 161.69 39.0312C161.69 40.8281 162.722 42.125 164.409 42.125ZM171.397 40.75L169.335 36H168.116V42H169.038V37.3242L171.022 42H171.772L173.757 37.4102V42H174.679V36H173.491L171.397 40.75ZM178.882 42.125C180.101 42.125 180.991 41.5156 181.272 40.6094L180.382 40.3594C180.147 40.9844 179.604 41.2969 178.882 41.2969C177.8 41.2969 177.054 40.5977 177.011 39.3125H181.366V38.9219C181.366 36.6875 180.038 35.9219 178.788 35.9219C177.163 35.9219 176.085 37.2031 176.085 39.0469C176.085 40.8906 177.147 42.125 178.882 42.125ZM177.011 38.5156C177.073 37.582 177.733 36.75 178.788 36.75C179.788 36.75 180.429 37.5 180.429 38.5156H177.011ZM182.21 36.8594H184.194V42H185.116V36.8594H187.085V36H182.21V36.8594ZM190.556 42.125C192.181 42.125 193.274 40.8906 193.274 39.0312C193.274 37.1562 192.181 35.9219 190.556 35.9219C188.931 35.9219 187.837 37.1562 187.837 39.0312C187.837 40.8906 188.931 42.125 190.556 42.125ZM190.556 41.2969C189.321 41.2969 188.759 40.2344 188.759 39.0312C188.759 37.8281 189.321 36.75 190.556 36.75C191.79 36.75 192.353 37.8281 192.353 39.0312C192.353 40.2344 191.79 41.2969 190.556 41.2969ZM194.15 42H194.463C195.791 42 196.174 40.9688 196.26 39L196.354 36.8594H198.557V42H199.479V36H195.479L195.369 38.6562C195.291 40.6719 195.088 41.1406 194.369 41.1406H194.15V42ZM203.607 42.125C205.232 42.125 206.326 40.8906 206.326 39.0312C206.326 37.1562 205.232 35.9219 203.607 35.9219C201.982 35.9219 200.889 37.1562 200.889 39.0312C200.889 40.8906 201.982 42.125 203.607 42.125ZM203.607 41.2969C202.373 41.2969 201.811 40.2344 201.811 39.0312C201.811 37.8281 202.373 36.75 203.607 36.75C204.842 36.75 205.404 37.8281 205.404 39.0312C205.404 40.2344 204.842 41.2969 203.607 41.2969ZM211.437 36H207.733V42H208.655V36.8594H211.437V36ZM213.704 40.6406V36H212.782V42H213.86L216.735 37.3594V42H217.657V36H216.595L213.704 40.6406ZM220.268 40.6406V36H219.346V42H220.424L223.299 37.3594V42H224.221V36H223.158L220.268 40.6406Z" fill="#1C1E23"/>
<path d="M61.2066 31.4275C61.2066 25.2117 59.4117 19.1355 56.049 13.9673C52.6862 8.79909 47.9067 4.77096 42.3146 2.39229C36.7226 0.013617 30.5693 -0.608752 24.6329 0.603884C18.6964 1.81652 13.2434 4.8097 8.9635 9.2049C4.68356 13.6001 1.76888 19.2 0.588047 25.2963C-0.592787 31.3926 0.0132599 37.7116 2.32955 43.4542C4.64584 49.1969 8.56834 54.1052 13.601 57.5585C18.6337 61.0117 24.5505 62.8549 30.6033 62.8549C34.6223 62.8553 38.602 62.0427 42.3151 60.4635C46.0282 58.8842 49.4021 56.5693 52.2439 53.6509C55.0858 50.7326 57.34 47.2679 58.8778 43.4547C60.4156 39.6416 61.2069 35.5547 61.2066 31.4275Z" fill="#B7ECB1"/>
<path d="M13.0333 24.7617H14.6956L9.76235 36.7967H9.38402L4.35547 24.7617H6.03562L9.54489 33.1777L13.0333 24.7617Z" fill="#91BD9D"/>
<path d="M19.5658 31.9992V35.3644C19.5658 35.6336 19.6551 35.7682 19.8339 35.7682C20.1521 35.7079 20.4491 35.5622 20.6948 35.346V36.3005C20.4324 36.4816 20.1541 36.6373 19.8637 36.7655C19.6546 36.8485 19.4324 36.8911 19.2083 36.8909C18.5569 36.8909 18.1726 36.6278 18.0554 36.1017C17.4725 36.5921 16.7444 36.864 15.991 36.8726C15.7437 36.8797 15.4976 36.8352 15.2676 36.7415C15.0377 36.6479 14.8287 36.5072 14.6534 36.328C14.4774 36.1503 14.3391 35.937 14.2473 35.7016C14.1556 35.4663 14.1122 35.214 14.1201 34.9606C14.1193 34.4634 14.3062 33.9853 14.6415 33.6267C15.0562 33.1987 15.568 32.8833 16.131 32.709L18.0763 32.0206V31.6015C18.0763 30.6532 17.6145 30.1759 16.691 30.1759C15.8589 30.1759 15.0516 30.6165 14.2691 31.4975V29.769C14.8649 29.0573 15.7139 28.7004 16.8161 28.6983C17.5373 28.6653 18.2452 28.9047 18.8061 29.3713C19.1749 29.7064 19.4235 30.1588 19.5121 30.6562C19.5578 31.1043 19.5757 31.5549 19.5658 32.0053V31.9992ZM18.0763 35.19V32.8466L17.0574 33.2504C16.6557 33.392 16.283 33.6088 15.9582 33.8898C15.758 34.1055 15.6464 34.3919 15.6464 34.6898C15.6464 34.9877 15.758 35.2742 15.9582 35.4898C16.0629 35.5928 16.1868 35.673 16.3225 35.7256C16.4581 35.7782 16.6027 35.802 16.7476 35.7957C16.9999 35.7904 17.2486 35.7336 17.4793 35.6286C17.71 35.5235 17.918 35.3724 18.0911 35.1839" fill="#91BD9D"/>
<path d="M23.5955 24.7617H22.0762V36.7478H23.5955V24.7617Z" fill="#91BD9D"/>
<path d="M35.2802 24.7617H36.8442V36.7447H35.164V27.4202L31.5743 32.0519H31.2675L27.6361 27.4202V36.7447H25.9648V24.7617H27.5467L31.4253 29.684L35.2802 24.7617Z" fill="#91BD9D"/>
<path d="M43.9807 32V35.3651C43.9807 35.6343 44.0671 35.7689 44.2458 35.7689C44.564 35.7086 44.861 35.563 45.1067 35.3468V36.3012C44.8443 36.4824 44.5661 36.638 44.2756 36.7662C44.0666 36.8495 43.8444 36.8921 43.6202 36.8917C42.9688 36.8917 42.5845 36.6286 42.4673 36.1024C41.8845 36.5928 41.1564 36.8647 40.4029 36.8733C40.1561 36.8808 39.9103 36.8363 39.6808 36.7427C39.4513 36.649 39.2429 36.5082 39.0683 36.3288C38.8918 36.1513 38.7529 35.9381 38.6607 35.7027C38.5684 35.4674 38.5246 35.2149 38.5321 34.9613C38.5313 34.4642 38.7181 33.9861 39.0534 33.6275C39.4681 33.1994 39.98 32.884 40.5429 32.7097L42.4912 32.0214V31.6023C42.4912 30.6539 42.0265 30.1766 41.103 30.1766C40.2708 30.1766 39.4635 30.6172 38.681 31.4982V29.7698C39.2768 29.058 40.1259 28.7011 41.2281 28.699C41.9506 28.6622 42.661 28.8996 43.224 29.366C43.4064 29.528 43.5596 29.7216 43.6768 29.938C43.8039 30.1573 43.8898 30.399 43.93 30.6508C43.9772 31.0988 43.9961 31.5495 43.9866 32H43.9807ZM42.4971 35.1846V32.8412L41.4753 33.2451C41.0748 33.3872 40.7032 33.604 40.3791 33.8844C40.1758 34.0973 40.0605 34.3826 40.0572 34.6807C40.0538 34.9789 40.1628 35.2668 40.3612 35.4844C40.4661 35.5871 40.59 35.6672 40.7257 35.7197C40.8613 35.7723 41.0058 35.7963 41.1506 35.7903C41.4033 35.7848 41.6524 35.7278 41.8835 35.6228C42.1146 35.5178 42.3232 35.3668 42.4971 35.1785" fill="#91BD9D"/>
<path d="M48.0782 28.8516V30.6627L48.1616 30.525C48.8984 29.3013 49.6342 28.6895 50.369 28.6895C50.941 28.6895 51.5368 28.9862 52.1565 29.5797L51.3551 30.9533C50.8248 30.4394 50.3343 30.1824 49.8835 30.1824C49.6303 30.1882 49.3823 30.2566 49.1604 30.3818C48.9384 30.5069 48.7491 30.6851 48.6085 30.9013C48.2467 31.3918 48.0567 31.9932 48.0693 32.6084V36.7445H46.541V28.8516H48.0782Z" fill="#91BD9D"/>
<path d="M54.0135 25.5326C54.1326 25.5307 54.2509 25.5533 54.3614 25.599C54.4719 25.6447 54.5724 25.7126 54.657 25.7988C54.7425 25.8827 54.8103 25.984 54.8559 26.0961C54.9015 26.2082 54.9241 26.3289 54.9221 26.4504C54.9175 26.6923 54.8219 26.923 54.6553 27.0941C54.4887 27.2653 54.264 27.3635 54.0284 27.3682C53.912 27.3684 53.7968 27.3438 53.6901 27.2958C53.5834 27.2479 53.4876 27.1777 53.4088 27.0898C53.3239 27.0058 53.2563 26.905 53.2103 26.7936C53.1642 26.6821 53.1405 26.5623 53.1406 26.4412C53.1412 26.3216 53.1652 26.2033 53.2113 26.0935C53.2574 25.9836 53.3245 25.8844 53.4088 25.8018C53.4876 25.7139 53.5834 25.6437 53.6901 25.5958C53.7968 25.5478 53.912 25.5232 54.0284 25.5234L54.0135 25.5326ZM53.2598 28.8519H54.7821V36.7447H53.2598V28.8519Z" fill="#91BD9D"/>
<path d="M13.3605 24.4561H15.0228L10.0895 36.4911H9.71121L4.67969 24.4561H6.36282L9.87208 32.872L13.3605 24.4561Z" fill="white"/>
<path d="M19.8938 31.6936V35.0588C19.8938 35.328 19.9832 35.4626 20.1619 35.4626C20.4799 35.4017 20.7768 35.2561 21.0228 35.0404V35.9949C20.7604 36.176 20.4822 36.3317 20.1917 36.4599C19.9816 36.543 19.7584 36.5855 19.5333 36.5853C18.8839 36.5853 18.4996 36.3222 18.3805 35.796C17.799 36.2869 17.0716 36.5589 16.319 36.567C16.0717 36.5743 15.8256 36.5298 15.5956 36.4362C15.3656 36.3426 15.1566 36.2018 14.9814 36.0224C14.8054 35.8447 14.6671 35.6314 14.5754 35.396C14.4836 35.1607 14.4403 34.9083 14.4482 34.655C14.4474 34.1578 14.6342 33.6797 14.9695 33.3211C15.3842 32.8931 15.8961 32.5777 16.459 32.4034L18.4043 31.715V31.2959C18.4043 30.3476 17.9425 29.8703 17.0191 29.8703C16.1889 29.8703 15.3806 30.3108 14.5942 31.1919V29.4634C15.19 28.7517 16.04 28.3947 17.1442 28.3927C17.8653 28.3597 18.5733 28.5991 19.1341 29.0657C19.3155 29.2279 19.4678 29.4216 19.584 29.6378C19.7119 29.8569 19.7988 30.0987 19.8402 30.3506C19.8858 30.7987 19.9037 31.2493 19.8938 31.6997V31.6936ZM18.4043 34.8844V32.541L17.3855 32.9448C16.9837 33.0864 16.611 33.3032 16.2862 33.5842C16.0847 33.7991 15.9721 34.0859 15.9721 34.3842C15.9721 34.6826 16.0847 34.9693 16.2862 35.1842C16.3909 35.2872 16.5148 35.3674 16.6505 35.42C16.7862 35.4726 16.9308 35.4964 17.0757 35.4901C17.3279 35.4845 17.5765 35.4275 17.8071 35.3225C18.0378 35.2175 18.2458 35.0665 18.4192 34.8783" fill="white"/>
<path d="M23.9177 24.4561H22.3984V36.4421H23.9177V24.4561Z" fill="white"/>
<path d="M35.6083 24.4561H37.1693V36.4391H35.4921V27.1145L31.9024 31.7462H31.5926L27.9642 27.1145V36.4391H26.293V24.4561H27.8748L31.7535 29.3784L35.6083 24.4561Z" fill="white"/>
<path d="M44.304 31.6942V35.0594C44.304 35.3286 44.3934 35.4632 44.5721 35.4632C44.8903 35.4029 45.1873 35.2572 45.433 35.041V35.9955C45.1706 36.1766 44.8924 36.3323 44.6019 36.4605C44.3928 36.5435 44.1706 36.5861 43.9465 36.5859C43.2951 36.5859 42.9108 36.3228 42.7936 35.7967C42.2108 36.2871 41.4826 36.559 40.7292 36.5676C40.4819 36.5747 40.2358 36.5302 40.0059 36.4365C39.7759 36.3429 39.5669 36.2022 39.3916 36.023C39.2156 35.8453 39.0773 35.632 38.9855 35.3966C38.8937 35.1613 38.8504 34.909 38.8583 34.6556C38.8575 34.1584 39.0444 33.6803 39.3797 33.3217C39.7944 32.8937 40.3062 32.5783 40.8692 32.404L42.8145 31.7156V31.2965C42.8145 30.3482 42.3527 29.8709 41.4292 29.8709C40.5991 29.8709 39.7918 30.3115 39.0073 31.1925V29.4641C39.6031 28.7523 40.4521 28.3954 41.5543 28.3933C42.2768 28.357 42.987 28.5944 43.5503 29.0602C43.9163 29.3976 44.1643 29.849 44.2563 30.3451C44.302 30.7932 44.3199 31.2438 44.3099 31.6942H44.304ZM42.8204 34.8789V32.5355L41.8016 32.9393C41.3999 33.0809 41.0272 33.2977 40.7023 33.5787C40.4988 33.7916 40.3836 34.0773 40.3808 34.3756C40.378 34.674 40.4879 34.9618 40.6875 35.1787C40.7922 35.2817 40.9161 35.3619 41.0517 35.4145C41.1874 35.4671 41.332 35.4909 41.4769 35.4846C41.7291 35.479 41.9778 35.422 42.2084 35.317C42.439 35.212 42.647 35.061 42.8204 34.8728" fill="white"/>
<path d="M48.4072 28.5459V30.357L48.4906 30.2193C49.2254 28.9956 49.9612 28.3838 50.698 28.3838C51.27 28.3838 51.8658 28.6805 52.4854 29.274L51.6841 30.6476C51.1568 30.1337 50.6653 29.8767 50.2154 29.8767C49.9623 29.8825 49.7143 29.9509 49.4923 30.0761C49.2704 30.2012 49.0811 30.3794 48.9404 30.5956C48.5773 31.0854 48.3872 31.6873 48.4012 32.3027V36.4387H46.873V28.5459H48.4072Z" fill="white"/>
<path d="M54.3379 25.2267C54.457 25.2248 54.5753 25.2473 54.6858 25.293C54.7963 25.3387 54.8968 25.4067 54.9814 25.4928C55.0679 25.5762 55.1365 25.6772 55.1827 25.7895C55.2288 25.9017 55.2516 26.0226 55.2495 26.1444C55.2505 26.2661 55.2273 26.3867 55.1811 26.4988C55.135 26.6108 55.067 26.712 54.9814 26.7961C54.8975 26.8839 54.7974 26.9535 54.6869 27.0008C54.5763 27.0481 54.4576 27.0721 54.3379 27.0714C54.222 27.0712 54.1073 27.0464 54.0012 26.9984C53.8951 26.9505 53.7998 26.8806 53.7212 26.793C53.6364 26.709 53.5688 26.6082 53.5228 26.4968C53.4767 26.3854 53.453 26.2655 53.4531 26.1444C53.4537 26.0248 53.4777 25.9066 53.5238 25.7967C53.5699 25.6869 53.637 25.5877 53.7212 25.5051C53.7998 25.4175 53.8951 25.3475 54.0012 25.2996C54.1073 25.2517 54.222 25.2269 54.3379 25.2267ZM53.5872 28.5459H55.1154V36.4387H53.5961L53.5872 28.5459Z" fill="white"/>
</svg>
