<svg width="98" height="98" viewBox="0 0 98 98" fill="none" xmlns="http://www.w3.org/2000/svg">
<path d="M98 49C98 39.3087 95.1262 29.8351 89.742 21.7771C84.3578 13.7191 76.7051 7.43862 67.7515 3.72992C58.7979 0.0212309 48.9457 -0.949133 39.4406 0.941543C29.9355 2.83222 21.2046 7.49902 14.3518 14.3518C7.49902 21.2046 2.83222 29.9355 0.941543 39.4406C-0.949132 48.9457 0.0212309 58.7979 3.72992 67.7515C7.43862 76.7051 13.7191 84.3578 21.7771 89.742C29.8351 95.1262 39.3087 98 49 98C55.435 98.0006 61.807 96.7336 67.7522 94.2714C73.6975 91.8091 79.0994 88.1998 83.6496 83.6497C88.1998 79.0995 91.8091 73.6975 94.2714 67.7523C96.7336 61.807 98.0006 55.435 98 49Z" fill="#B7ECB1"/>
<path d="M20.867 38.6064H23.5286L15.6298 57.3708H15.0241L6.97266 38.6064H9.66281L15.2816 51.7281L20.867 38.6064Z" fill="#91BD9D"/>
<path d="M31.328 49.8925V55.1393C31.328 55.559 31.4711 55.7689 31.7573 55.7689C32.2668 55.6748 32.7424 55.4478 33.1358 55.1107V56.5988C32.7156 56.8812 32.2701 57.1239 31.805 57.3238C31.4703 57.4533 31.1145 57.5196 30.7557 57.5194C29.7127 57.5194 29.0974 57.1092 28.9098 56.2888C27.9765 57.0534 26.8107 57.4773 25.6043 57.4908C25.2084 57.5019 24.8144 57.4324 24.4462 57.2865C24.078 57.1405 23.7434 56.9212 23.4627 56.6418C23.1808 56.3646 22.9595 56.0321 22.8125 55.6651C22.6656 55.2982 22.5962 54.9047 22.6089 54.5097C22.6076 53.7346 22.9068 52.9891 23.4436 52.43C24.1076 51.7627 24.9272 51.2709 25.8285 50.9991L28.9432 49.9259V49.2724C28.9432 47.7938 28.2038 47.0497 26.7252 47.0497C25.3929 47.0497 24.1002 47.7366 22.8474 49.1103V46.4153C23.8013 45.3056 25.1607 44.7491 26.9255 44.7459C28.0802 44.6944 29.2137 45.0677 30.1118 45.7953C30.7023 46.3176 31.1003 47.0231 31.2422 47.7986C31.3153 48.4972 31.344 49.1998 31.328 49.902V49.8925ZM28.9432 54.8674V51.2137L27.3119 51.8434C26.6687 52.0641 26.0719 52.4021 25.5518 52.8402C25.2314 53.1764 25.0526 53.6231 25.0526 54.0875C25.0526 54.552 25.2314 54.9986 25.5518 55.3348C25.7195 55.4954 25.9179 55.6205 26.1351 55.7025C26.3523 55.7844 26.5839 55.8216 26.8158 55.8118C27.2198 55.8036 27.618 55.715 27.9874 55.5512C28.3567 55.3874 28.6897 55.1517 28.967 54.8579" fill="#91BD9D"/>
<path d="M37.7763 38.6064H35.3438V57.2945H37.7763V38.6064Z" fill="#91BD9D"/>
<path d="M56.4893 38.6064H58.9935V57.2897H56.3033V42.7514L50.5557 49.9728H50.0644L44.2501 42.7514V57.2897H41.5742V38.6064H44.107L50.3172 46.281L56.4893 38.6064Z" fill="#91BD9D"/>
<path d="M70.4167 49.8926V55.1394C70.4167 55.5592 70.555 55.769 70.8412 55.769C71.3507 55.675 71.8262 55.4479 72.2196 55.1108V56.599C71.7995 56.8814 71.354 57.1241 70.8889 57.324C70.5543 57.4539 70.1984 57.5202 69.8395 57.5195C68.7965 57.5195 68.1812 57.1093 67.9936 56.2889C67.0604 57.0536 65.8945 57.4775 64.6882 57.4909C64.2929 57.5026 63.8995 57.4332 63.532 57.2872C63.1645 57.1412 62.8308 56.9216 62.5513 56.6419C62.2686 56.3652 62.0463 56.0328 61.8986 55.6658C61.7508 55.2989 61.6807 54.9052 61.6927 54.5098C61.6914 53.7347 61.9906 52.9893 62.5274 52.4302C63.1914 51.7628 64.011 51.2711 64.9123 50.9992L68.0318 49.926V49.2726C68.0318 47.7939 67.2877 47.0499 65.8091 47.0499C64.4767 47.0499 63.1841 47.7367 61.9312 49.1104V46.4155C62.8852 45.3057 64.2446 44.7492 66.0094 44.746C67.1662 44.6886 68.3037 45.0587 69.2051 45.7859C69.4971 46.0385 69.7425 46.3404 69.9302 46.6778C70.1337 47.0196 70.2712 47.3966 70.3356 47.7892C70.4111 48.4876 70.4413 49.1903 70.4262 49.8926H70.4167ZM68.0413 54.858V51.2043L66.4053 51.834C65.7639 52.0556 65.1689 52.3935 64.65 52.8308C64.3246 53.1628 64.1399 53.6076 64.1346 54.0724C64.1292 54.5372 64.3036 54.9861 64.6214 55.3254C64.7893 55.4856 64.9878 55.6104 65.2049 55.6923C65.4221 55.7742 65.6535 55.8117 65.8854 55.8024C66.2899 55.7937 66.6888 55.705 67.0588 55.5412C67.4289 55.3775 67.7628 55.142 68.0413 54.8485" fill="#91BD9D"/>
<path d="M76.9788 44.9842V47.808L77.1123 47.5933C78.2921 45.6854 79.4702 44.7314 80.6468 44.7314C81.5626 44.7314 82.5165 45.1941 83.5086 46.1195L82.2256 48.2611C81.3765 47.4598 80.5911 47.0591 79.8693 47.0591C79.464 47.0682 79.0668 47.1748 78.7115 47.3699C78.3561 47.565 78.053 47.8429 77.8278 48.18C77.2485 48.9447 76.9443 49.8825 76.9645 50.8415V57.2903H74.5176V44.9842H76.9788Z" fill="#91BD9D"/>
<path d="M86.4815 39.8083C86.6723 39.8053 86.8616 39.8404 87.0386 39.9117C87.2155 39.983 87.3764 40.0889 87.5118 40.2232C87.6488 40.3541 87.7572 40.512 87.8303 40.6868C87.9034 40.8617 87.9395 41.0497 87.9363 41.2392C87.929 41.6164 87.7759 41.9761 87.5091 42.2429C87.2423 42.5097 86.8826 42.6628 86.5054 42.6701C86.319 42.6705 86.1345 42.6321 85.9637 42.5574C85.7929 42.4826 85.6395 42.3732 85.5133 42.2361C85.3773 42.1051 85.2693 41.948 85.1955 41.7743C85.1217 41.6005 85.0838 41.4136 85.084 41.2249C85.0849 41.0384 85.1234 40.854 85.1971 40.6827C85.2709 40.5115 85.3784 40.3568 85.5133 40.228C85.6395 40.0908 85.7929 39.9814 85.9637 39.9067C86.1345 39.832 86.319 39.7936 86.5054 39.7939L86.4815 39.8083ZM85.2748 44.9835H87.7121V57.2895H85.2748V44.9835Z" fill="#91BD9D"/>
<path d="M21.3933 38.1299H24.0548L16.1561 56.8942H15.5503L7.49414 38.1299H10.1891L15.8079 51.2516L21.3933 38.1299Z" fill="white"/>
<path d="M31.8534 49.4159V54.6627C31.8534 55.0825 31.9965 55.2923 32.2827 55.2923C32.7919 55.1974 33.2673 54.9704 33.6612 54.6341V56.1223C33.241 56.4047 32.7955 56.6474 32.3304 56.8473C31.9941 56.9768 31.6367 57.0431 31.2763 57.0428C30.2365 57.0428 29.6212 56.6326 29.4304 55.8122C28.4994 56.5775 27.3348 57.0016 26.1297 57.0142C25.7338 57.0257 25.3397 56.9563 24.9714 56.8103C24.6032 56.6643 24.2686 56.4448 23.9881 56.1652C23.7062 55.888 23.4849 55.5555 23.3379 55.1886C23.191 54.8216 23.1216 54.4282 23.1343 54.0331C23.133 53.258 23.4322 52.5126 23.969 51.9535C24.633 51.2861 25.4526 50.7944 26.3539 50.5225L29.4686 49.4493V48.7959C29.4686 47.3172 28.7292 46.5732 27.2506 46.5732C25.9214 46.5732 24.6272 47.26 23.368 48.6337V45.9388C24.322 44.829 25.6829 44.2725 27.4509 44.2694C28.6056 44.2178 29.7391 44.5911 30.6371 45.3187C30.9276 45.5716 31.1713 45.8735 31.3574 46.2107C31.5623 46.5523 31.7014 46.9292 31.7676 47.322C31.8407 48.0206 31.8694 48.7232 31.8534 49.4255V49.4159ZM29.4686 54.3908V50.7372L27.8373 51.3668C27.1941 51.5875 26.5973 51.9255 26.0772 52.3637C25.7546 52.6987 25.5743 53.1458 25.5743 53.611C25.5743 54.0761 25.7546 54.5232 26.0772 54.8583C26.2449 55.0189 26.4433 55.1439 26.6605 55.2259C26.8777 55.3079 27.1093 55.3451 27.3412 55.3353C27.7451 55.3265 28.1432 55.2376 28.5124 55.0739C28.8817 54.9101 29.2148 54.6747 29.4924 54.3813" fill="white"/>
<path d="M38.2959 38.1299H35.8633V56.8179H38.2959V38.1299Z" fill="white"/>
<path d="M57.0147 38.1299H59.5141V56.8131H56.8287V42.2748L51.0811 49.4963H50.5851L44.7755 42.2748V56.8131H42.0996V38.1299H44.6324L50.8426 45.8045L57.0147 38.1299Z" fill="white"/>
<path d="M70.9374 49.4149V54.6617C70.9374 55.0814 71.0805 55.2913 71.3667 55.2913C71.8762 55.1973 72.3518 54.9702 72.7452 54.6331V56.1213C72.325 56.4037 71.8795 56.6464 71.4144 56.8463C71.0797 56.9757 70.7239 57.042 70.3651 57.0418C69.3221 57.0418 68.7068 56.6316 68.5192 55.8112C67.5859 56.5758 66.4201 56.9998 65.2137 57.0132C64.8178 57.0244 64.4238 56.9549 64.0556 56.8089C63.6874 56.6629 63.3528 56.4436 63.0721 56.1642C62.7902 55.887 62.5688 55.5545 62.4219 55.1875C62.275 54.8206 62.2056 54.4272 62.2183 54.0321C62.217 53.257 62.5162 52.5116 63.053 51.9525C63.717 51.2851 64.5365 50.7934 65.4379 50.5215L68.5525 49.4483V48.7949C68.5525 47.3162 67.8132 46.5721 66.3346 46.5721C65.0054 46.5721 63.7128 47.259 62.4568 48.6327V45.9378C63.4107 44.828 64.7701 44.2715 66.5349 44.2683C67.6916 44.2118 68.8288 44.5818 69.7307 45.3082C70.3166 45.8342 70.7138 46.5379 70.8611 47.3115C70.9342 48.0101 70.9629 48.7127 70.947 49.4149H70.9374ZM68.5621 54.3803V50.7266L66.9308 51.3562C66.2876 51.577 65.6908 51.915 65.1708 52.3531C64.8449 52.6851 64.6603 53.1304 64.6559 53.5956C64.6515 54.0608 64.8275 54.5096 65.1469 54.8477C65.3146 55.0083 65.513 55.1334 65.7302 55.2154C65.9474 55.2973 66.1789 55.3345 66.4109 55.3247C66.8148 55.3159 67.2128 55.2271 67.5821 55.0633C67.9514 54.8996 68.2845 54.6642 68.5621 54.3707" fill="white"/>
<path d="M77.5053 44.5067V47.3304L77.6388 47.1158C78.8154 45.2079 79.9935 44.2539 81.1732 44.2539C82.089 44.2539 83.043 44.7166 84.0351 45.6419L82.752 47.7835C81.9078 46.9822 81.1208 46.5816 80.4005 46.5816C79.9952 46.5907 79.5981 46.6973 79.2427 46.8924C78.8874 47.0875 78.5843 47.3654 78.3591 47.7025C77.7777 48.466 77.4733 49.4046 77.4957 50.364V56.8127H75.0488V44.5067H77.5053Z" fill="white"/>
<path d="M87.0026 39.3322C87.1933 39.3292 87.3827 39.3644 87.5596 39.4357C87.7365 39.5069 87.8974 39.6128 88.0328 39.7472C88.1714 39.8771 88.2812 40.0347 88.3551 40.2097C88.4291 40.3847 88.4655 40.5732 88.4621 40.7631C88.4638 40.9528 88.4266 41.1409 88.3527 41.3156C88.2789 41.4903 88.17 41.6481 88.0328 41.7791C87.8986 41.916 87.7383 42.0246 87.5613 42.0983C87.3843 42.1721 87.1943 42.2095 87.0026 42.2084C86.8169 42.2081 86.6334 42.1694 86.4635 42.0947C86.2936 42.02 86.1409 41.9109 86.0152 41.7743C85.8793 41.6434 85.7712 41.4863 85.6974 41.3125C85.6237 41.1388 85.5858 40.9519 85.5859 40.7631C85.5869 40.5767 85.6253 40.3923 85.6991 40.221C85.7729 40.0497 85.8804 39.8951 86.0152 39.7663C86.1409 39.6297 86.2936 39.5206 86.4635 39.4459C86.6334 39.3712 86.8169 39.3325 87.0026 39.3322ZM85.8006 44.5074H88.2475V56.8135H85.8149L85.8006 44.5074Z" fill="white"/>
</svg>
